<svg width="396" height="155" viewBox="0 0 396 155" fill="none" xmlns="http://www.w3.org/2000/svg">
<g clip-path="url(#clip0_927_30522)">
<path d="M32.6896 154.515H47.1815L122.42 2.91187H107.929L63.427 92.6428L15.683 2.91187H0L56.0818 107.333L32.6896 154.515Z" fill="black"/>
<path d="M192.631 114.678C226.842 114.678 252.583 105.215 252.583 55.8833C252.583 7.34523 227.041 0 197.858 0C163.812 0 138.104 9.66129 138.104 58.7949C138.104 107.531 163.614 114.678 192.631 114.678ZM192.233 101.543C171.554 101.543 152 98.2342 152 58.3979C152 19.1571 171.554 13.3339 198.619 13.3339C218.934 13.3339 238.853 16.6426 238.853 56.4789C238.853 95.7196 219.497 101.543 192.233 101.543Z" fill="black"/>
<path d="M299.202 111.965V17.8006C315.249 14.6905 331.66 13.3339 339.998 13.3339C363.787 13.3339 381.389 22.4327 381.389 50.8541V111.965H395.12V50.8541C395.12 12.7714 371.695 0 341.355 0C327.822 0 305.555 2.91162 285.471 7.34523V111.965H299.202Z" fill="black"/>
</g>
<defs>
<clipPath id="clip0_927_30522">
<rect width="396" height="155" fill="white"/>
</clipPath>
</defs>
</svg>
